#!OML:ASF G:\JayActor3\Patient Classification 1\Patient 1\Session 2\male.ASF
:FULLY-SPECIFIED
:DEGREES
2663
root -35.2013 16.0508 -4.64841 328.437 -256.682 -752.263
lowerback 8.12273 -1.94557 -9.18325
upperback -2.43218 -3.65923 -1.84805
thorax -6.70705 -1.42242 3.68042
lowerneck -1.60293 -3.72244 -4.11
upperneck -0.924539 -4.80698 10.8183
head 0.394517 -2.32698 4.22048
rclavicle -4.10832e-014 -1.68967e-014
rhumerus -23.2813 29.8461 -81.2113
rradius 127.038
rwrist -29.3819
rhand -40.5934 25.3341
rfingers 7.12502
rthumb -13.5398 -4.20568
lclavicle -4.10832e-014 -1.68967e-014
lhumerus -37.3093 -70.6796 124.129
lradius 88.9623
lwrist 38.2034
lhand -19.0529 12.4189
lfingers 7.12502
lthumb 7.25412 42.2745
rfemur -58.4156 -5.13487 14.0588
rtibia 97.0231
rfoot -19.2644 -0.634596
rtoes -8.39621
lfemur 29.0237 11.1104 -26.5643
ltibia -6.99722e-014
lfoot -12.9782 14.6552
ltoes -26.2895
2664
root -35.0624 16.0462 -4.64199 329.384 -256.583 -751.128
lowerback 7.88135 -1.99623 -9.00875
upperback -2.42259 -3.67784 -1.78797
thorax -6.56033 -1.44639 3.63734
lowerneck -1.50846 -3.74198 -4.13764
upperneck -0.950316 -4.83323 10.7766
head 0.371011 -2.34383 4.21266
rclavicle -4.51645e-014 -3.39922e-014
rhumerus -23.3036 29.9518 -81.2084
rradius 127.048
rwrist -29.3893
rhand -40.5734 25.3423
rfingers 7.12502
rthumb -13.5205 -4.19878
lclavicle -4.51645e-014 -3.39922e-014
lhumerus -37.7521 -70.7717 124.506
lradius 88.9951
lwrist 38.2716
lhand -18.9949 12.3786
lfingers 7.12502
lthumb 7.31004 42.2323
rfemur -55.115 -3.80409 13.8097
rtibia 92.3325
rfoot -19.1242 -1.00358
rtoes -7.49338
lfemur 29.6869 10.9549 -26.0194
ltibia -1.08139e-013
lfoot -12.1599 14.4859
ltoes -27.226
2665
root -34.916 16.0439 -4.63485 330.333 -256.492 -749.994
lowerback 7.59247 -2.04774 -8.82334
upperback -2.41473 -3.6924 -1.73111
thorax -6.38972 -1.46973 3.58167
lowerneck -1.4226 -3.76345 -4.16271
upperneck -0.963931 -4.86325 10.7242
head 0.352863 -2.36215 4.20017
rclavicle -2.4876e-014 -4.05521e-014
rhumerus -23.304 30.0594 -81.1961
rradius 127.058
rwrist -29.4041
rhand -40.5633 25.3637
rfingers 7.12502
rthumb -13.5108 -4.17804
lclavicle -2.4876e-014 -4.05521e-014
lhumerus -38.1927 -70.834 124.859
lradius 89.0164
lwrist 38.2853
lhand -18.8853 12.366
lfingers 7.12502
lthumb 7.41585 42.216
rfemur -51.744 -2.45286 13.6782
rtibia 87.5943
rfoot -18.8238 -1.33551
rtoes -6.46601
lfemur 30.3481 10.8029 -25.4695
ltibia 1.01778e-013
lfoot -11.2476 14.4028
ltoes -28.1185
2666
root -34.7618 16.0441 -4.62672 331.28 -256.392 -748.875
lowerback 7.2484 -2.10221 -8.63536
upperback -2.41371 -3.70651 -1.68184
thorax -6.19575 -1.49358 3.51353
lowerneck -1.34802 -3.78886 -4.18884
upperneck -0.948746 -4.90108 10.6599
head 0.346304 -2.38357 4.18302
rclavicle 4.4565e-014 1.61016e-014
rhumerus -23.2982 30.1676 -81.1797
rradius 127.078
rwrist -29.4154
rhand -40.5577 25.4092
rfingers 7.12502
rthumb -13.5053 -4.13289
lclavicle 4.4565e-014 1.61016e-014
lhumerus -38.6738 -70.8783 125.23
lradius 89.0377
lwrist 38.33
lhand -18.8067 12.3501
lfingers 7.12502
lthumb 7.49178 42.1975
rfemur -48.3251 -1.09651 13.6647
rtibia 82.8549
rfoot -18.3521 -1.60609
rtoes -5.34745
lfemur 30.9978 10.6426 -24.9298
ltibia 6.36111e-015
lfoot -10.242 14.412
ltoes -28.876
2667
root -34.5997 16.0454 -4.61701 332.244 -256.282 -747.762
lowerback 6.83723 -2.15797 -8.44773
upperback -2.42358 -3.71741 -1.63941
thorax -5.97608 -1.51634 3.43453
lowerneck -1.27325 -3.81704 -4.22601
upperneck -0.907427 -4.94483 10.5968
head 0.348957 -2.40743 4.1681
rclavicle -4.34407e-014 -3.0911e-014
rhumerus -23.2967 30.272 -81.1606
rradius 127.11
rwrist -29.4081
rhand -40.5611 25.4617
rfingers 7.12502
rthumb -13.5087 -4.08016
lclavicle -4.34407e-014 -3.0911e-014
lhumerus -39.2026 -70.9121 125.632
lradius 89.0562
lwrist 38.386
lhand -18.7833 12.3434
lfingers 7.12502
lthumb 7.51432 42.1899
rfemur -44.888 0.242057 13.793
rtibia 78.1686
rfoot -17.8024 -1.70854
rtoes -3.66553
lfemur 31.6066 10.4729 -24.4047
ltibia 2.54444e-014
lfoot -9.03991 14.5865
ltoes -29.7277
2668
root -34.4306 16.0447 -4.60494 333.209 -256.158 -746.674
lowerback 6.35721 -2.21226 -8.26695
upperback -2.44796 -3.72247 -1.60841
thorax -5.73385 -1.53613 3.34324
lowerneck -1.19542 -3.84768 -4.26992
upperneck -0.830837 -4.99478 10.5365
head 0.363199 -2.43376 4.15514
rclavicle 3.87071e-014 1.78906e-014
rhumerus -23.3142 30.3665 -81.1506
rradius 127.16
rwrist -29.3741
rhand -40.5743 25.5208
rfingers 7.12502
rthumb -13.5213 -4.02018
lclavicle 3.87071e-014 1.78906e-014
lhumerus -39.802 -70.9489 126.089
lradius 89.0763
lwrist 38.4868
lhand -18.8238 12.3334
lfingers 7.12502
lthumb 7.47519 42.1813
rfemur -41.4435 1.52409 14.0733
rtibia 73.6443
rfoot -17.6587 -1.63002
rtoes -0.442134
lfemur 32.1819 10.2929 -23.8991
ltibia 9.54166e-014
lfoot -7.64745 14.9316
ltoes -30.4886
2669
root -34.2545 16.0428 -4.59041 334.21 -256.03 -745.572
lowerback 5.80831 -2.25852 -8.08529
upperback -2.48209 -3.71204 -1.58399
thorax -5.46513 -1.54866 3.23969
lowerneck -1.0931 -3.88231 -4.31778
upperneck -0.738416 -5.05172 10.479
head 0.378942 -2.46393 4.14425
rclavicle -3.36629e-014 1.49089e-015
rhumerus -23.3554 30.4368 -81.1468
rradius 127.226
rwrist -29.3015
rhand -40.5929 25.5787
rfingers 7.12502
rthumb -13.5392 -3.96109
lclavicle -3.36629e-014 1.49089e-015
lhumerus -40.427 -70.981 126.566
lradius 89.0815
lwrist 38.5511
lhand -18.8471 12.3398
lfingers 7.12502
lthumb 7.45274 42.1885
rfemur -38.0359 2.70955 14.5447
rtibia 69.3697
rfoot -18.1174 -1.65545
rtoes 2.92709
lfemur 32.7027 10.1107 -23.3996
ltibia -3.49861e-014
lfoot -5.92081 15.5044
ltoes -31.6947
2670
root -34.0732 16.0393 -4.57368 335.217 -255.911 -744.476
lowerback 5.2109 -2.29116 -7.899
upperback -2.5224 -3.68066 -1.56593
thorax -5.17849 -1.55095 3.12293
lowerneck -0.964571 -3.92081 -4.3668
upperneck -0.642175 -5.1146 10.4228
head 0.391796 -2.4977 4.1345
rclavicle -3.60918e-014 1.63997e-014
rhumerus -23.4159 30.4807 -81.1511
rradius 127.305
rwrist -29.1962
rhand -40.617 25.6202
rfingers 7.12502
rthumb -13.5625 -3.9181
lclavicle -3.60918e-014 1.63997e-014
lhumerus -41.0621 -71.0232 127.056
lradius 89.0828
lwrist 38.6239
lhand -18.8637 12.3625
lfingers 7.12502
lthumb 7.43676 42.2118
rfemur -34.7091 3.76975 15.2015
rtibia 65.4406
rfoot -19.4648 -1.90438
rtoes 6.33673
lfemur 33.1807 9.94003 -22.9039
ltibia -5.40694e-014
lfoot -3.85741 16.2734
ltoes -33.0714
2671
root -33.8885 16.0371 -4.55539 336.236 -255.83 -743.366
lowerback 4.60451 -2.29684 -7.68393
upperback -2.57162 -3.61351 -1.55271
thorax -4.90198 -1.5352 2.98285
lowerneck -0.782793 -3.96575 -4.41381
upperneck -0.560578 -5.18592 10.3707
head 0.391208 -2.53732 4.1271
rclavicle 1.73191e-014 2.73329e-014
rhumerus -23.5087 30.484 -81.1788
rradius 127.388
rwrist -29.0634
rhand -40.6479 25.6452
rfingers 7.12502
rthumb -13.5923 -3.8911
lclavicle 1.73191e-014 2.73329e-014
lhumerus -41.7187 -71.0723 127.572
lradius 89.0814
lwrist 38.716
lhand -18.8565 12.4082
lfingers 7.12502
lthumb 7.44367 42.2573
rfemur -31.5221 4.73129 16.0298
rtibia 61.9124
rfoot -21.6099 -2.68539
rtoes 8.77888
lfemur 33.6166 9.8065 -22.3891
ltibia -8.26944e-014
lfoot -1.33626 17.2307
ltoes -34.0907
2672
root -33.7031 16.0391 -4.53609 337.249 -255.808 -742.243
lowerback 4.05321 -2.27351 -7.42601
upperback -2.62511 -3.51369 -1.53785
thorax -4.66671 -1.50229 2.8225
lowerneck -0.58562 -4.01261 -4.47321
upperneck -0.480616 -5.26004 10.3254
head 0.388192 -2.57874 4.12499
rclavicle 2.31584e-014 1.49089e-014
rhumerus -23.6088 30.4649 -81.2282
rradius 127.46
rwrist -28.9199
rhand -40.6813 25.6494
rfingers 7.12502
rthumb -13.6245 -3.88477
lclavicle 2.31584e-014 1.49089e-014
lhumerus -42.2972 -71.1094 128.025
lradius 89.0643
lwrist 38.7816
lhand -18.8205 12.4586
lfingers 7.12502
lthumb 7.47842 42.3064
rfemur -28.5406 5.66247 16.9757
rtibia 58.8285
rfoot -24.1522 -4.0147
rtoes 10.2906
lfemur 27.9013 10.004 -21.6499
ltibia 11.2914
lfoot -3.72498 17.4161
ltoes -34.6145
2673
root -33.5205 16.0479 -4.51568 338.3 -255.863 -741.031
lowerback 3.63533 -2.21568 -7.10283
upperback -2.67937 -3.38029 -1.51359
thorax -4.51362 -1.45126 2.64151
lowerneck -0.397263 -4.05998 -4.54488
upperneck -0.394995 -5.3352 10.2887
head 0.38934 -2.62026 4.12813
rclavicle -2.2239e-015 1.19271e-015
rhumerus -23.7071 30.4278 -81.3059
rradius 127.511
rwrist -28.7958
rhand -40.725 25.6226
rfingers 7.12502
rthumb -13.6666 -3.90871
lclavicle -2.2239e-015 1.19271e-015
lhumerus -42.8165 -71.137 128.432
lradius 89.041
lwrist 38.8887
lhand -18.8353 12.5132
lfingers 7.12502
lthumb 7.46409 42.3615
rfemur -25.8262 6.64221 18.0037
rtibia 56.2038
rfoot -26.5189 -5.66275
rtoes 11.4618
lfemur 24.467 10.8164 -20.4453
ltibia 18.4866
lfoot -3.49315 17.1767
ltoes -34.3408
2674
root -33.3447 16.0636 -4.49373 339.486 -255.997 -739.605
lowerback 3.42625 -2.1238 -6.69014
upperback -2.73185 -3.21877 -1.4724
thorax -4.48216 -1.38483 2.43745
lowerneck -0.24158 -4.11136 -4.6183
upperneck -0.28934 -5.4167 10.2531
head 0.403422 -2.66371 4.13102
rclavicle -4.79692e-014 -5.36719e-015
rhumerus -23.7997 30.368 -81.4141
rradius 127.531
rwrist -28.7012
rhand -40.775 25.563
rfingers 7.12502
rthumb -13.7148 -3.96509
lclavicle -4.79692e-014 -5.36719e-015
lhumerus -43.2645 -71.1421 128.787
lradius 88.9931
lwrist 38.9802
lhand -18.8631 12.5795
lfingers 7.12502
lthumb 7.43727 42.4287
rfemur -23.4152 7.69259 19.0958
rtibia 54.0293
rfoot -28.256 -7.40391
rtoes 11.9611
lfemur 21.4844 11.516 -19.2142
ltibia 24.8203
lfoot -2.20742 17.0951
ltoes -33.0027
2675
root -33.1793 16.0845 -4.47033 341.027 -256.204 -737.722
lowerback 3.46153 -2.00918 -6.14403
upperback -2.76543 -3.04146 -1.39621
thorax -4.57348 -1.31175 2.20507
lowerneck -0.157781 -4.1654 -4.69139
upperneck -0.163957 -5.50172 10.218
head 0.437021 -2.70665 4.13199
rclavicle 3.34455e-014 -5.96354e-015
rhumerus -23.8611 30.2943 -81.5381
rradius 127.514
rwrist -28.6516
rhand -40.8302 25.4722
rfingers 7.12502
rthumb -13.768 -4.05225
lclavicle 3.34455e-014 -5.96354e-015
lhumerus -43.5665 -71.1167 129.025
lradius 88.9043
lwrist 39.025
lhand -18.8896 12.6602
lfingers 7.12502
lthumb 7.41176 42.5104
rfemur -21.3114 8.74026 20.2783
rtibia 52.2522
rfoot -29.0194 -8.90026
rtoes 11.7899
lfemur 18.5357 12.023 -17.9348
ltibia 31.0456
lfoot -0.0323968 17.1084
ltoes -30.4615
2676
root -33.0267 16.106 -4.44625 343.175 -256.456 -735.129
lowerback 3.72497 -1.88324 -5.4206
upperback -2.76974 -2.85393 -1.27458
thorax -4.76754 -1.23797 1.92805
lowerneck -0.153023 -4.22859 -4.7418
upperneck -0.0275071 -5.59785 10.1728
head 0.488169 -2.75289 4.12264
rclavicle 1.20513e-014 -9.93923e-016
rhumerus -23.8932 30.1954 -81.6612
rradius 127.475
rwrist -28.6567
rhand -40.8881 25.3599
rfingers 7.12502
rthumb -13.8238 -4.16075
lclavicle 1.20513e-014 -9.93923e-016
lhumerus -43.7992 -71.0845 129.227
lradius 88.7935
lwrist 39.0903
lhand -18.9682 12.7574
lfingers 7.12502
lthumb 7.33585 42.6102
rfemur -19.4339 9.65475 21.5844
rtibia 50.7868
rfoot -29.1387 -9.95401
rtoes 11.6442
lfemur 15.4791 12.2944 -16.5716
ltibia 37.3835
lfoot 3.12501 17.0833
ltoes -26.257
